<svg xmlns="http://www.w3.org/2000/svg" viewBox="0 0 64 64" fill="none">
  <rect x="10" y="12" width="22" height="18" rx="4" stroke="#6A97E3" stroke-width="2.8"/>
  <rect x="34" y="12" width="20" height="12" rx="4" stroke="#6A97E3" stroke-width="2.8"/>
  <rect x="10" y="34" width="20" height="12" rx="4" stroke="#6A97E3" stroke-width="2.8"/>
  <rect x="34" y="28" width="20" height="18" rx="4" stroke="#6A97E3" stroke-width="2.8"/>
  <path d="M15 26L20 22L24 24L29 18" stroke="#6A97E3" stroke-width="2.8" stroke-linecap="round" stroke-linejoin="round"/>
  <rect x="15" y="23.5" width="3.5" height="2.8" rx="1" fill="#6A97E3"/>
  <rect x="20.5" y="21" width="3.5" height="5.3" rx="1" fill="#6A97E3"/>
  <rect x="26" y="17.5" width="3.5" height="8.8" rx="1" fill="#6A97E3"/>
  <circle cx="40" cy="18" r="1.7" fill="#6A97E3"/>
  <circle cx="45" cy="18" r="1.7" fill="#6A97E3"/>
  <circle cx="50" cy="18" r="1.7" fill="#6A97E3"/>
  <circle cx="16" cy="40" r="1.7" fill="#6A97E3"/>
  <circle cx="21" cy="40" r="1.7" fill="#6A97E3"/>
  <circle cx="26" cy="40" r="1.7" fill="#6A97E3"/>
  <path d="M40 37H48" stroke="#6A97E3" stroke-width="2.8" stroke-linecap="round"/>
  <path d="M40 41H46" stroke="#6A97E3" stroke-width="2.8" stroke-linecap="round" opacity=".8"/>
</svg>
